<svg width="131" height="67" viewBox="0 0 131 67" fill="none" xmlns="http://www.w3.org/2000/svg">
<path fill-rule="evenodd" clip-rule="evenodd" d="M23.8558 8.34646C24.9154 21.5758 30.5658 23.5884 31.8007 31.4726C32.456 35.6521 32.5496 38.4385 33.1092 39.8317C33.6709 41.2249 35.4455 42.7111 35.4455 42.7111C35.4455 42.7111 31.1255 44.3061 31 47.1756C30.8746 50.0451 30.8746 51.4185 32.7587 51.2938C34.6428 51.1692 35.4594 51.0445 35.5212 50.1084C35.5849 49.1724 35.2085 48.737 34.5174 49.111C33.8263 49.4851 32.697 50.3578 32.697 50.3578C33.167 48.9171 36.5768 46.3148 34.0155 46.7383C33.1849 46.8768 37.9511 42.6814 43.247 46.9876C46.0095 49.2337 47.33 49.2971 48.521 49.3584C49.714 49.4217 45.3801 49.2337 40.7335 50.9812C36.0868 52.7286 34.9386 55.1176 23.4017 54.85C4.15705 53.2925 -3.64823 33.4337 1.59193 17.6832C4.79459 8.05556 11.8877 4.40834 16.2634 2.54416C28.3551 -2.6051 42.6973 -0.0759856 50.4888 11.3941C52.9406 15.0037 55.0199 20.4973 55.0199 24.9024C55.0199 24.9024 53.3011 19.2347 52.363 17.6832C51.4249 16.1297 51.2696 16.0525 51.2696 16.0525L51.3472 19.391C50.682 11.5563 47.0631 9.60706 41.1099 5.49281L43.0638 10.2285C36.6027 2.45114 29.2951 0.929325 19.8565 3.78496L26.6541 6.1142C17.6517 5.77777 6.52801 9.84058 4.69764 19.8561C6.18145 18.1205 11.6407 15.5756 13.8395 15.819C6.80087 20.3706 1.96104 33.7642 7.16336 38.6127L8.61332 33.78C9.05548 42.0046 14.5685 49.2891 23.4654 48.8815C21.9736 46.4454 20.7089 43.9756 20.7089 41.0547C20.7089 41.0547 24.4553 44.7989 24.6465 44.9018C24.8377 45.0047 22.4138 41.9017 21.6928 39.2281C20.9718 36.5545 20.9041 33.0973 20.9041 33.0973C20.9041 33.0973 24.1207 37.7182 24.5151 38.0526C24.6824 38.1951 21.9517 32.5828 22.4138 25.3358C23.0512 27.2059 25.2002 32.2266 27.2058 32.7708C24.1227 24.4453 19.8166 17.1687 23.8498 8.34251L23.8558 8.34646Z" fill="url(#paint0_linear_496_4628)"/>
<path fill-rule="evenodd" clip-rule="evenodd" d="M23.8558 8.34646C24.9154 21.5758 30.5658 23.5884 31.8007 31.4726C32.456 35.6521 32.5496 38.4385 33.1092 39.8317C33.6709 41.2249 35.4455 42.7111 35.4455 42.7111C35.4455 42.7111 31.1255 44.3061 31 47.1756C30.8746 50.0451 30.8746 51.4185 32.7587 51.2938C34.6428 51.1692 35.4594 51.0445 35.5212 50.1084C35.5849 49.1724 35.2085 48.737 34.5174 49.111C33.8263 49.4851 32.697 50.3578 32.697 50.3578C33.167 48.9171 36.5768 46.3148 34.0155 46.7383C33.1849 46.8768 37.9511 42.6814 43.247 46.9876C46.0095 49.2337 47.33 49.2971 48.521 49.3584C49.714 49.4217 45.3801 49.2337 40.7335 50.9812C36.0868 52.7286 34.9386 55.1176 23.4017 54.85C4.15705 53.2925 -3.64823 33.4337 1.59193 17.6832C4.79459 8.05556 11.8877 4.40834 16.2634 2.54416C28.3551 -2.6051 42.6973 -0.0759856 50.4888 11.3941C52.9406 15.0037 55.0199 20.4973 55.0199 24.9024C55.0199 24.9024 53.3011 19.2347 52.363 17.6832C51.4249 16.1297 51.2696 16.0525 51.2696 16.0525L51.3472 19.391C50.682 11.5563 47.0631 9.60706 41.1099 5.49281L43.0638 10.2285C36.6027 2.45114 29.2951 0.929325 19.8565 3.78496L26.6541 6.1142C17.6517 5.77777 6.52801 9.84058 4.69764 19.8561C6.18145 18.1205 11.6407 15.5756 13.8395 15.819C6.80087 20.3706 1.96104 33.7642 7.16336 38.6127L8.61332 33.78C9.05548 42.0046 14.5685 49.2891 23.4654 48.8815C21.9736 46.4454 20.7089 43.9756 20.7089 41.0547C20.7089 41.0547 24.4553 44.7989 24.6465 44.9018C24.8377 45.0047 22.4138 41.9017 21.6928 39.2281C20.9718 36.5545 20.9041 33.0973 20.9041 33.0973C20.9041 33.0973 24.1207 37.7182 24.5151 38.0526C24.6824 38.1951 21.9517 32.5828 22.4138 25.3358C23.0512 27.2059 25.2002 32.2266 27.2058 32.7708C24.1227 24.4453 19.8166 17.1687 23.8498 8.34251L23.8558 8.34646Z" fill="url(#paint1_linear_496_4628)"/>
<path d="M44.2551 34.37C42.461 33.932 41.1945 33.3801 40.4558 32.7143C39.7346 32.0309 39.374 31.1812 39.374 30.165C39.374 28.9385 39.8138 27.9749 40.6932 27.274C41.5903 26.5732 42.9095 26.2228 44.6509 26.2228C45.7766 26.2228 46.9111 26.3454 48.0544 26.5907C48.371 26.6608 48.6261 26.836 48.8196 27.1164C49.0306 27.3792 49.1362 27.677 49.1362 28.0099C49.1362 28.2903 49.0218 28.5093 48.7932 28.667C48.5645 28.8246 48.3183 28.8597 48.0544 28.7721C46.9463 28.4742 45.8997 28.3253 44.9147 28.3253C43.0678 28.3253 42.1444 28.8509 42.1444 29.9022C42.1444 30.4278 42.3203 30.8571 42.672 31.1899C43.0238 31.5228 43.6395 31.7944 44.5189 32.0047C46.5417 32.4777 47.9049 33.0472 48.6085 33.713C49.3121 34.3612 49.6639 35.3249 49.6639 36.6039C49.6639 37.7953 49.1977 38.7327 48.2655 39.416C47.3508 40.0818 46.014 40.4147 44.2551 40.4147C43.1118 40.4147 41.9685 40.2657 40.8252 39.9679C40.5085 39.8803 40.2535 39.7051 40.06 39.4423C39.8665 39.1619 39.7698 38.8553 39.7698 38.5224C39.7698 38.2596 39.8753 38.0494 40.0864 37.8917C40.3151 37.734 40.5525 37.6989 40.7988 37.7865C41.8893 38.137 42.9535 38.3122 43.9913 38.3122C45.9261 38.3122 46.8935 37.7427 46.8935 36.6039C46.8935 36.0607 46.7 35.6227 46.3131 35.2898C45.9261 34.9394 45.2401 34.6328 44.2551 34.37Z" fill="url(#paint2_linear_496_4628)"/>
<path d="M44.2551 34.37C42.461 33.932 41.1945 33.3801 40.4558 32.7143C39.7346 32.0309 39.374 31.1812 39.374 30.165C39.374 28.9385 39.8138 27.9749 40.6932 27.274C41.5903 26.5732 42.9095 26.2228 44.6509 26.2228C45.7766 26.2228 46.9111 26.3454 48.0544 26.5907C48.371 26.6608 48.6261 26.836 48.8196 27.1164C49.0306 27.3792 49.1362 27.677 49.1362 28.0099C49.1362 28.2903 49.0218 28.5093 48.7932 28.667C48.5645 28.8246 48.3183 28.8597 48.0544 28.7721C46.9463 28.4742 45.8997 28.3253 44.9147 28.3253C43.0678 28.3253 42.1444 28.8509 42.1444 29.9022C42.1444 30.4278 42.3203 30.8571 42.672 31.1899C43.0238 31.5228 43.6395 31.7944 44.5189 32.0047C46.5417 32.4777 47.9049 33.0472 48.6085 33.713C49.3121 34.3612 49.6639 35.3249 49.6639 36.6039C49.6639 37.7953 49.1977 38.7327 48.2655 39.416C47.3508 40.0818 46.014 40.4147 44.2551 40.4147C43.1118 40.4147 41.9685 40.2657 40.8252 39.9679C40.5085 39.8803 40.2535 39.7051 40.06 39.4423C39.8665 39.1619 39.7698 38.8553 39.7698 38.5224C39.7698 38.2596 39.8753 38.0494 40.0864 37.8917C40.3151 37.734 40.5525 37.6989 40.7988 37.7865C41.8893 38.137 42.9535 38.3122 43.9913 38.3122C45.9261 38.3122 46.8935 37.7427 46.8935 36.6039C46.8935 36.0607 46.7 35.6227 46.3131 35.2898C45.9261 34.9394 45.2401 34.6328 44.2551 34.37Z" fill="white" fill-opacity="0.2"/>
<path d="M44.2551 34.37C42.461 33.932 41.1945 33.3801 40.4558 32.7143C39.7346 32.0309 39.374 31.1812 39.374 30.165C39.374 28.9385 39.8138 27.9749 40.6932 27.274C41.5903 26.5732 42.9095 26.2228 44.6509 26.2228C45.7766 26.2228 46.9111 26.3454 48.0544 26.5907C48.371 26.6608 48.6261 26.836 48.8196 27.1164C49.0306 27.3792 49.1362 27.677 49.1362 28.0099C49.1362 28.2903 49.0218 28.5093 48.7932 28.667C48.5645 28.8246 48.3183 28.8597 48.0544 28.7721C46.9463 28.4742 45.8997 28.3253 44.9147 28.3253C43.0678 28.3253 42.1444 28.8509 42.1444 29.9022C42.1444 30.4278 42.3203 30.8571 42.672 31.1899C43.0238 31.5228 43.6395 31.7944 44.5189 32.0047C46.5417 32.4777 47.9049 33.0472 48.6085 33.713C49.3121 34.3612 49.6639 35.3249 49.6639 36.6039C49.6639 37.7953 49.1977 38.7327 48.2655 39.416C47.3508 40.0818 46.014 40.4147 44.2551 40.4147C43.1118 40.4147 41.9685 40.2657 40.8252 39.9679C40.5085 39.8803 40.2535 39.7051 40.06 39.4423C39.8665 39.1619 39.7698 38.8553 39.7698 38.5224C39.7698 38.2596 39.8753 38.0494 40.0864 37.8917C40.3151 37.734 40.5525 37.6989 40.7988 37.7865C41.8893 38.137 42.9535 38.3122 43.9913 38.3122C45.9261 38.3122 46.8935 37.7427 46.8935 36.6039C46.8935 36.0607 46.7 35.6227 46.3131 35.2898C45.9261 34.9394 45.2401 34.6328 44.2551 34.37Z" fill="#818DFF"/>
<path d="M58.3418 28.2727C56.3366 28.2727 55.2109 29.4554 54.9646 31.8207C54.9294 31.9784 54.9998 32.0572 55.1757 32.0572H61.0858C61.2265 32.0572 61.2968 31.9784 61.2968 31.8207C61.1913 29.4554 60.2063 28.2727 58.3418 28.2727ZM59.0014 40.4147C56.8027 40.4147 55.1053 39.819 53.9092 38.6275C52.7308 37.4361 52.1415 35.6665 52.1415 33.3187C52.1415 30.9709 52.6692 29.2013 53.7246 28.0099C54.7975 26.8185 56.3366 26.2228 58.3418 26.2228C62.0004 26.2228 63.8913 28.3603 64.0144 32.6354C64.032 33.0559 63.8825 33.4063 63.5659 33.6867C63.2493 33.967 62.8799 34.1072 62.4577 34.1072H55.1493C55.0086 34.1072 54.9382 34.1773 54.9382 34.3174C55.1493 37.0156 56.5916 38.3647 59.2652 38.3647C60.1975 38.3647 61.1121 38.2158 62.0092 37.9179C62.273 37.8303 62.5193 37.8654 62.748 38.0231C62.9766 38.1808 63.091 38.3998 63.091 38.6801C63.091 39.013 62.9854 39.3109 62.7743 39.5737C62.5633 39.8365 62.2906 40.0117 61.9564 40.0993C60.989 40.3095 60.004 40.4147 59.0014 40.4147Z" fill="url(#paint3_linear_496_4628)"/>
<path d="M58.3418 28.2727C56.3366 28.2727 55.2109 29.4554 54.9646 31.8207C54.9294 31.9784 54.9998 32.0572 55.1757 32.0572H61.0858C61.2265 32.0572 61.2968 31.9784 61.2968 31.8207C61.1913 29.4554 60.2063 28.2727 58.3418 28.2727ZM59.0014 40.4147C56.8027 40.4147 55.1053 39.819 53.9092 38.6275C52.7308 37.4361 52.1415 35.6665 52.1415 33.3187C52.1415 30.9709 52.6692 29.2013 53.7246 28.0099C54.7975 26.8185 56.3366 26.2228 58.3418 26.2228C62.0004 26.2228 63.8913 28.3603 64.0144 32.6354C64.032 33.0559 63.8825 33.4063 63.5659 33.6867C63.2493 33.967 62.8799 34.1072 62.4577 34.1072H55.1493C55.0086 34.1072 54.9382 34.1773 54.9382 34.3174C55.1493 37.0156 56.5916 38.3647 59.2652 38.3647C60.1975 38.3647 61.1121 38.2158 62.0092 37.9179C62.273 37.8303 62.5193 37.8654 62.748 38.0231C62.9766 38.1808 63.091 38.3998 63.091 38.6801C63.091 39.013 62.9854 39.3109 62.7743 39.5737C62.5633 39.8365 62.2906 40.0117 61.9564 40.0993C60.989 40.3095 60.004 40.4147 59.0014 40.4147Z" fill="white" fill-opacity="0.2"/>
<path d="M58.3418 28.2727C56.3366 28.2727 55.2109 29.4554 54.9646 31.8207C54.9294 31.9784 54.9998 32.0572 55.1757 32.0572H61.0858C61.2265 32.0572 61.2968 31.9784 61.2968 31.8207C61.1913 29.4554 60.2063 28.2727 58.3418 28.2727ZM59.0014 40.4147C56.8027 40.4147 55.1053 39.819 53.9092 38.6275C52.7308 37.4361 52.1415 35.6665 52.1415 33.3187C52.1415 30.9709 52.6692 29.2013 53.7246 28.0099C54.7975 26.8185 56.3366 26.2228 58.3418 26.2228C62.0004 26.2228 63.8913 28.3603 64.0144 32.6354C64.032 33.0559 63.8825 33.4063 63.5659 33.6867C63.2493 33.967 62.8799 34.1072 62.4577 34.1072H55.1493C55.0086 34.1072 54.9382 34.1773 54.9382 34.3174C55.1493 37.0156 56.5916 38.3647 59.2652 38.3647C60.1975 38.3647 61.1121 38.2158 62.0092 37.9179C62.273 37.8303 62.5193 37.8654 62.748 38.0231C62.9766 38.1808 63.091 38.3998 63.091 38.6801C63.091 39.013 62.9854 39.3109 62.7743 39.5737C62.5633 39.8365 62.2906 40.0117 61.9564 40.0993C60.989 40.3095 60.004 40.4147 59.0014 40.4147Z" fill="#818DFF"/>
<path d="M76.4694 33.3187C76.4694 29.9898 75.2557 28.3253 72.8284 28.3253C70.401 28.3253 69.1874 29.9898 69.1874 33.3187C69.1874 36.6477 70.401 38.3122 72.8284 38.3122C75.2557 38.3122 76.4694 36.6477 76.4694 33.3187ZM77.5775 38.575C76.4342 39.8014 74.8512 40.4147 72.8284 40.4147C70.8056 40.4147 69.2225 39.8014 68.0792 38.575C66.9359 37.331 66.3642 35.5789 66.3642 33.3187C66.3642 31.0585 66.9359 29.3152 68.0792 28.0888C69.2225 26.8448 70.8056 26.2228 72.8284 26.2228C74.8512 26.2228 76.4342 26.8448 77.5775 28.0888C78.7208 29.3152 79.2925 31.0585 79.2925 33.3187C79.2925 35.5789 78.7208 37.331 77.5775 38.575Z" fill="url(#paint4_linear_496_4628)"/>
<path d="M76.4694 33.3187C76.4694 29.9898 75.2557 28.3253 72.8284 28.3253C70.401 28.3253 69.1874 29.9898 69.1874 33.3187C69.1874 36.6477 70.401 38.3122 72.8284 38.3122C75.2557 38.3122 76.4694 36.6477 76.4694 33.3187ZM77.5775 38.575C76.4342 39.8014 74.8512 40.4147 72.8284 40.4147C70.8056 40.4147 69.2225 39.8014 68.0792 38.575C66.9359 37.331 66.3642 35.5789 66.3642 33.3187C66.3642 31.0585 66.9359 29.3152 68.0792 28.0888C69.2225 26.8448 70.8056 26.2228 72.8284 26.2228C74.8512 26.2228 76.4342 26.8448 77.5775 28.0888C78.7208 29.3152 79.2925 31.0585 79.2925 33.3187C79.2925 35.5789 78.7208 37.331 77.5775 38.575Z" fill="white" fill-opacity="0.2"/>
<path d="M76.4694 33.3187C76.4694 29.9898 75.2557 28.3253 72.8284 28.3253C70.401 28.3253 69.1874 29.9898 69.1874 33.3187C69.1874 36.6477 70.401 38.3122 72.8284 38.3122C75.2557 38.3122 76.4694 36.6477 76.4694 33.3187ZM77.5775 38.575C76.4342 39.8014 74.8512 40.4147 72.8284 40.4147C70.8056 40.4147 69.2225 39.8014 68.0792 38.575C66.9359 37.331 66.3642 35.5789 66.3642 33.3187C66.3642 31.0585 66.9359 29.3152 68.0792 28.0888C69.2225 26.8448 70.8056 26.2228 72.8284 26.2228C74.8512 26.2228 76.4342 26.8448 77.5775 28.0888C78.7208 29.3152 79.2925 31.0585 79.2925 33.3187C79.2925 35.5789 78.7208 37.331 77.5775 38.575Z" fill="#818DFF"/>
<path d="M84.5549 39.7576C84.2911 40.0204 83.9657 40.1519 83.5787 40.1519C83.1917 40.1519 82.8575 40.0204 82.5761 39.7576C82.3123 39.4948 82.1803 39.1707 82.1803 38.7852V27.7734C82.1803 27.423 82.3035 27.1251 82.5497 26.8798C82.8136 26.617 83.1214 26.4856 83.4732 26.4856C83.825 26.4856 84.124 26.617 84.3702 26.8798C84.6341 27.1251 84.7748 27.423 84.7924 27.7734L84.8188 28.1676C84.8188 28.1851 84.8275 28.1939 84.8451 28.1939C84.8627 28.1939 84.8803 28.1851 84.8979 28.1676C86.1468 26.8711 87.5715 26.2228 89.1722 26.2228C90.7728 26.2228 91.9425 26.6783 92.6812 27.5894C93.42 28.483 93.7894 29.9547 93.7894 32.0047V38.8115C93.7894 39.1795 93.6575 39.4948 93.3936 39.7576C93.1298 40.0204 92.8132 40.1519 92.4438 40.1519C92.0744 40.1519 91.749 40.0204 91.4676 39.7576C91.2037 39.4948 91.0718 39.1795 91.0718 38.8115V32.3989C91.0718 30.822 90.8783 29.7532 90.4914 29.1926C90.1044 28.6144 89.4008 28.3253 88.3806 28.3253C87.5539 28.3253 86.7712 28.6932 86.0324 29.4291C85.3113 30.1475 84.9507 30.9184 84.9507 31.7419V38.7852C84.9507 39.1707 84.8188 39.4948 84.5549 39.7576Z" fill="url(#paint5_linear_496_4628)"/>
<path d="M84.5549 39.7576C84.2911 40.0204 83.9657 40.1519 83.5787 40.1519C83.1917 40.1519 82.8575 40.0204 82.5761 39.7576C82.3123 39.4948 82.1803 39.1707 82.1803 38.7852V27.7734C82.1803 27.423 82.3035 27.1251 82.5497 26.8798C82.8136 26.617 83.1214 26.4856 83.4732 26.4856C83.825 26.4856 84.124 26.617 84.3702 26.8798C84.6341 27.1251 84.7748 27.423 84.7924 27.7734L84.8188 28.1676C84.8188 28.1851 84.8275 28.1939 84.8451 28.1939C84.8627 28.1939 84.8803 28.1851 84.8979 28.1676C86.1468 26.8711 87.5715 26.2228 89.1722 26.2228C90.7728 26.2228 91.9425 26.6783 92.6812 27.5894C93.42 28.483 93.7894 29.9547 93.7894 32.0047V38.8115C93.7894 39.1795 93.6575 39.4948 93.3936 39.7576C93.1298 40.0204 92.8132 40.1519 92.4438 40.1519C92.0744 40.1519 91.749 40.0204 91.4676 39.7576C91.2037 39.4948 91.0718 39.1795 91.0718 38.8115V32.3989C91.0718 30.822 90.8783 29.7532 90.4914 29.1926C90.1044 28.6144 89.4008 28.3253 88.3806 28.3253C87.5539 28.3253 86.7712 28.6932 86.0324 29.4291C85.3113 30.1475 84.9507 30.9184 84.9507 31.7419V38.7852C84.9507 39.1707 84.8188 39.4948 84.5549 39.7576Z" fill="white" fill-opacity="0.2"/>
<path d="M84.5549 39.7576C84.2911 40.0204 83.9657 40.1519 83.5787 40.1519C83.1917 40.1519 82.8575 40.0204 82.5761 39.7576C82.3123 39.4948 82.1803 39.1707 82.1803 38.7852V27.7734C82.1803 27.423 82.3035 27.1251 82.5497 26.8798C82.8136 26.617 83.1214 26.4856 83.4732 26.4856C83.825 26.4856 84.124 26.617 84.3702 26.8798C84.6341 27.1251 84.7748 27.423 84.7924 27.7734L84.8188 28.1676C84.8188 28.1851 84.8275 28.1939 84.8451 28.1939C84.8627 28.1939 84.8803 28.1851 84.8979 28.1676C86.1468 26.8711 87.5715 26.2228 89.1722 26.2228C90.7728 26.2228 91.9425 26.6783 92.6812 27.5894C93.42 28.483 93.7894 29.9547 93.7894 32.0047V38.8115C93.7894 39.1795 93.6575 39.4948 93.3936 39.7576C93.1298 40.0204 92.8132 40.1519 92.4438 40.1519C92.0744 40.1519 91.749 40.0204 91.4676 39.7576C91.2037 39.4948 91.0718 39.1795 91.0718 38.8115V32.3989C91.0718 30.822 90.8783 29.7532 90.4914 29.1926C90.1044 28.6144 89.4008 28.3253 88.3806 28.3253C87.5539 28.3253 86.7712 28.6932 86.0324 29.4291C85.3113 30.1475 84.9507 30.9184 84.9507 31.7419V38.7852C84.9507 39.1707 84.8188 39.4948 84.5549 39.7576Z" fill="#818DFF"/>
<path d="M98.3829 21.8864C98.3829 21.4834 98.5236 21.1418 98.8051 20.8614C99.1041 20.5811 99.4471 20.4409 99.834 20.4409C100.221 20.4409 100.555 20.5811 100.837 20.8614C101.136 21.1418 101.285 21.4834 101.285 21.8864C101.285 22.2894 101.136 22.631 100.837 22.9114C100.555 23.1917 100.221 23.3319 99.834 23.3319C99.4471 23.3319 99.1041 23.1917 98.8051 22.9114C98.5236 22.631 98.3829 22.2894 98.3829 21.8864ZM100.837 39.7314C100.555 40.0117 100.221 40.1519 99.834 40.1519C99.4471 40.1519 99.1041 40.0117 98.8051 39.7314C98.5236 39.451 98.3829 39.1094 98.3829 38.7064V27.9311C98.3829 27.5281 98.5236 27.1864 98.8051 26.9061C99.1041 26.6258 99.4471 26.4856 99.834 26.4856C100.221 26.4856 100.555 26.6258 100.837 26.9061C101.136 27.1864 101.285 27.5281 101.285 27.9311V38.7064C101.285 39.1094 101.136 39.451 100.837 39.7314Z" fill="url(#paint6_linear_496_4628)"/>
<path d="M98.3829 21.8864C98.3829 21.4834 98.5236 21.1418 98.8051 20.8614C99.1041 20.5811 99.4471 20.4409 99.834 20.4409C100.221 20.4409 100.555 20.5811 100.837 20.8614C101.136 21.1418 101.285 21.4834 101.285 21.8864C101.285 22.2894 101.136 22.631 100.837 22.9114C100.555 23.1917 100.221 23.3319 99.834 23.3319C99.4471 23.3319 99.1041 23.1917 98.8051 22.9114C98.5236 22.631 98.3829 22.2894 98.3829 21.8864ZM100.837 39.7314C100.555 40.0117 100.221 40.1519 99.834 40.1519C99.4471 40.1519 99.1041 40.0117 98.8051 39.7314C98.5236 39.451 98.3829 39.1094 98.3829 38.7064V27.9311C98.3829 27.5281 98.5236 27.1864 98.8051 26.9061C99.1041 26.6258 99.4471 26.4856 99.834 26.4856C100.221 26.4856 100.555 26.6258 100.837 26.9061C101.136 27.1864 101.285 27.5281 101.285 27.9311V38.7064C101.285 39.1094 101.136 39.451 100.837 39.7314Z" fill="white" fill-opacity="0.2"/>
<path d="M98.3829 21.8864C98.3829 21.4834 98.5236 21.1418 98.8051 20.8614C99.1041 20.5811 99.4471 20.4409 99.834 20.4409C100.221 20.4409 100.555 20.5811 100.837 20.8614C101.136 21.1418 101.285 21.4834 101.285 21.8864C101.285 22.2894 101.136 22.631 100.837 22.9114C100.555 23.1917 100.221 23.3319 99.834 23.3319C99.4471 23.3319 99.1041 23.1917 98.8051 22.9114C98.5236 22.631 98.3829 22.2894 98.3829 21.8864ZM100.837 39.7314C100.555 40.0117 100.221 40.1519 99.834 40.1519C99.4471 40.1519 99.1041 40.0117 98.8051 39.7314C98.5236 39.451 98.3829 39.1094 98.3829 38.7064V27.9311C98.3829 27.5281 98.5236 27.1864 98.8051 26.9061C99.1041 26.6258 99.4471 26.4856 99.834 26.4856C100.221 26.4856 100.555 26.6258 100.837 26.9061C101.136 27.1864 101.285 27.5281 101.285 27.9311V38.7064C101.285 39.1094 101.136 39.451 100.837 39.7314Z" fill="#818DFF"/>
<path d="M108.494 39.7576C108.23 40.0204 107.905 40.1519 107.518 40.1519C107.131 40.1519 106.805 40.0204 106.541 39.7576C106.278 39.4948 106.146 39.1707 106.146 38.7852V21.8075C106.146 21.4221 106.278 21.0979 106.541 20.8351C106.805 20.5723 107.131 20.4409 107.518 20.4409C107.905 20.4409 108.23 20.5723 108.494 20.8351C108.775 21.0979 108.916 21.4221 108.916 21.8075V32.504C108.916 32.5215 108.925 32.5303 108.942 32.5303L108.995 32.504L113.692 27.5631C114.378 26.8448 115.222 26.4856 116.224 26.4856H116.515C116.796 26.4856 116.99 26.617 117.095 26.8798C117.218 27.1426 117.183 27.3704 116.99 27.5631L111.845 32.8982C111.757 32.9858 111.757 33.091 111.845 33.2136L117.016 39.048C117.209 39.2583 117.245 39.4948 117.121 39.7576C117.016 40.0204 116.814 40.1519 116.515 40.1519H116.224C115.239 40.1519 114.413 39.7752 113.744 39.0218L108.995 33.6078C108.978 33.5903 108.96 33.5815 108.942 33.5815C108.925 33.5815 108.916 33.5903 108.916 33.6078V38.7852C108.916 39.1707 108.775 39.4948 108.494 39.7576Z" fill="url(#paint7_linear_496_4628)"/>
<path d="M108.494 39.7576C108.23 40.0204 107.905 40.1519 107.518 40.1519C107.131 40.1519 106.805 40.0204 106.541 39.7576C106.278 39.4948 106.146 39.1707 106.146 38.7852V21.8075C106.146 21.4221 106.278 21.0979 106.541 20.8351C106.805 20.5723 107.131 20.4409 107.518 20.4409C107.905 20.4409 108.23 20.5723 108.494 20.8351C108.775 21.0979 108.916 21.4221 108.916 21.8075V32.504C108.916 32.5215 108.925 32.5303 108.942 32.5303L108.995 32.504L113.692 27.5631C114.378 26.8448 115.222 26.4856 116.224 26.4856H116.515C116.796 26.4856 116.99 26.617 117.095 26.8798C117.218 27.1426 117.183 27.3704 116.99 27.5631L111.845 32.8982C111.757 32.9858 111.757 33.091 111.845 33.2136L117.016 39.048C117.209 39.2583 117.245 39.4948 117.121 39.7576C117.016 40.0204 116.814 40.1519 116.515 40.1519H116.224C115.239 40.1519 114.413 39.7752 113.744 39.0218L108.995 33.6078C108.978 33.5903 108.96 33.5815 108.942 33.5815C108.925 33.5815 108.916 33.5903 108.916 33.6078V38.7852C108.916 39.1707 108.775 39.4948 108.494 39.7576Z" fill="white" fill-opacity="0.2"/>
<path d="M108.494 39.7576C108.23 40.0204 107.905 40.1519 107.518 40.1519C107.131 40.1519 106.805 40.0204 106.541 39.7576C106.278 39.4948 106.146 39.1707 106.146 38.7852V21.8075C106.146 21.4221 106.278 21.0979 106.541 20.8351C106.805 20.5723 107.131 20.4409 107.518 20.4409C107.905 20.4409 108.23 20.5723 108.494 20.8351C108.775 21.0979 108.916 21.4221 108.916 21.8075V32.504C108.916 32.5215 108.925 32.5303 108.942 32.5303L108.995 32.504L113.692 27.5631C114.378 26.8448 115.222 26.4856 116.224 26.4856H116.515C116.796 26.4856 116.99 26.617 117.095 26.8798C117.218 27.1426 117.183 27.3704 116.99 27.5631L111.845 32.8982C111.757 32.9858 111.757 33.091 111.845 33.2136L117.016 39.048C117.209 39.2583 117.245 39.4948 117.121 39.7576C117.016 40.0204 116.814 40.1519 116.515 40.1519H116.224C115.239 40.1519 114.413 39.7752 113.744 39.0218L108.995 33.6078C108.978 33.5903 108.96 33.5815 108.942 33.5815C108.925 33.5815 108.916 33.5903 108.916 33.6078V38.7852C108.916 39.1707 108.775 39.4948 108.494 39.7576Z" fill="#818DFF"/>
<path d="M126.005 33.2662C124.563 33.2662 123.472 33.5115 122.733 34.002C122.012 34.4751 121.652 35.1234 121.652 35.9469C121.652 36.5951 121.845 37.1295 122.232 37.55C122.619 37.9705 123.085 38.1808 123.63 38.1808C124.791 38.1808 125.715 37.8216 126.401 37.1032C127.104 36.3674 127.456 35.3687 127.456 34.1072V33.4764C127.456 33.3363 127.377 33.2662 127.219 33.2662H126.005ZM122.971 40.4147C121.775 40.4147 120.79 40.0292 120.016 39.2583C119.259 38.4874 118.881 37.4712 118.881 36.2097C118.881 34.6678 119.47 33.4764 120.649 32.6354C121.827 31.7769 123.613 31.3476 126.005 31.3476H127.219C127.377 31.3476 127.456 31.2688 127.456 31.1111V30.822C127.456 29.8934 127.236 29.2451 126.796 28.8772C126.357 28.5093 125.565 28.3253 124.422 28.3253C123.402 28.3253 122.188 28.5355 120.781 28.956C120.517 29.0436 120.262 29.0086 120.016 28.8509C119.787 28.6757 119.673 28.4479 119.673 28.1676C119.673 27.8172 119.778 27.5018 119.989 27.2215C120.2 26.9411 120.473 26.7659 120.807 26.6959C122.074 26.3805 123.279 26.2228 124.422 26.2228C126.638 26.2228 128.16 26.617 128.986 27.4054C129.813 28.1939 130.226 29.6394 130.226 31.7419V38.8641C130.226 39.2145 130.094 39.5211 129.831 39.7839C129.584 40.0292 129.285 40.1519 128.934 40.1519C128.582 40.1519 128.274 40.0292 128.01 39.7839C127.764 39.5211 127.632 39.2145 127.614 38.8641L127.588 38.207C127.588 38.1895 127.579 38.1808 127.562 38.1808C127.526 38.1808 127.509 38.1895 127.509 38.207C126.489 39.6788 124.976 40.4147 122.971 40.4147Z" fill="url(#paint8_linear_496_4628)"/>
<path d="M126.005 33.2662C124.563 33.2662 123.472 33.5115 122.733 34.002C122.012 34.4751 121.652 35.1234 121.652 35.9469C121.652 36.5951 121.845 37.1295 122.232 37.55C122.619 37.9705 123.085 38.1808 123.63 38.1808C124.791 38.1808 125.715 37.8216 126.401 37.1032C127.104 36.3674 127.456 35.3687 127.456 34.1072V33.4764C127.456 33.3363 127.377 33.2662 127.219 33.2662H126.005ZM122.971 40.4147C121.775 40.4147 120.79 40.0292 120.016 39.2583C119.259 38.4874 118.881 37.4712 118.881 36.2097C118.881 34.6678 119.47 33.4764 120.649 32.6354C121.827 31.7769 123.613 31.3476 126.005 31.3476H127.219C127.377 31.3476 127.456 31.2688 127.456 31.1111V30.822C127.456 29.8934 127.236 29.2451 126.796 28.8772C126.357 28.5093 125.565 28.3253 124.422 28.3253C123.402 28.3253 122.188 28.5355 120.781 28.956C120.517 29.0436 120.262 29.0086 120.016 28.8509C119.787 28.6757 119.673 28.4479 119.673 28.1676C119.673 27.8172 119.778 27.5018 119.989 27.2215C120.2 26.9411 120.473 26.7659 120.807 26.6959C122.074 26.3805 123.279 26.2228 124.422 26.2228C126.638 26.2228 128.16 26.617 128.986 27.4054C129.813 28.1939 130.226 29.6394 130.226 31.7419V38.8641C130.226 39.2145 130.094 39.5211 129.831 39.7839C129.584 40.0292 129.285 40.1519 128.934 40.1519C128.582 40.1519 128.274 40.0292 128.01 39.7839C127.764 39.5211 127.632 39.2145 127.614 38.8641L127.588 38.207C127.588 38.1895 127.579 38.1808 127.562 38.1808C127.526 38.1808 127.509 38.1895 127.509 38.207C126.489 39.6788 124.976 40.4147 122.971 40.4147Z" fill="white" fill-opacity="0.2"/>
<path d="M126.005 33.2662C124.563 33.2662 123.472 33.5115 122.733 34.002C122.012 34.4751 121.652 35.1234 121.652 35.9469C121.652 36.5951 121.845 37.1295 122.232 37.55C122.619 37.9705 123.085 38.1808 123.63 38.1808C124.791 38.1808 125.715 37.8216 126.401 37.1032C127.104 36.3674 127.456 35.3687 127.456 34.1072V33.4764C127.456 33.3363 127.377 33.2662 127.219 33.2662H126.005ZM122.971 40.4147C121.775 40.4147 120.79 40.0292 120.016 39.2583C119.259 38.4874 118.881 37.4712 118.881 36.2097C118.881 34.6678 119.47 33.4764 120.649 32.6354C121.827 31.7769 123.613 31.3476 126.005 31.3476H127.219C127.377 31.3476 127.456 31.2688 127.456 31.1111V30.822C127.456 29.8934 127.236 29.2451 126.796 28.8772C126.357 28.5093 125.565 28.3253 124.422 28.3253C123.402 28.3253 122.188 28.5355 120.781 28.956C120.517 29.0436 120.262 29.0086 120.016 28.8509C119.787 28.6757 119.673 28.4479 119.673 28.1676C119.673 27.8172 119.778 27.5018 119.989 27.2215C120.2 26.9411 120.473 26.7659 120.807 26.6959C122.074 26.3805 123.279 26.2228 124.422 26.2228C126.638 26.2228 128.16 26.617 128.986 27.4054C129.813 28.1939 130.226 29.6394 130.226 31.7419V38.8641C130.226 39.2145 130.094 39.5211 129.831 39.7839C129.584 40.0292 129.285 40.1519 128.934 40.1519C128.582 40.1519 128.274 40.0292 128.01 39.7839C127.764 39.5211 127.632 39.2145 127.614 38.8641L127.588 38.207C127.588 38.1895 127.579 38.1808 127.562 38.1808C127.526 38.1808 127.509 38.1895 127.509 38.207C126.489 39.6788 124.976 40.4147 122.971 40.4147Z" fill="#818DFF"/>
<defs>
<linearGradient id="paint0_linear_496_4628" x1="5.10981" y1="0.657031" x2="40.5447" y2="50.2846" gradientUnits="userSpaceOnUse">
<stop offset="0.180497" stop-color="#ABB3FF"/>
<stop offset="0.566076" stop-color="#4650AA"/>
<stop offset="0.807024" stop-color="#B741A8"/>
<stop offset="1" stop-color="#E85193"/>
</linearGradient>
<linearGradient id="paint1_linear_496_4628" x1="5.10981" y1="0.657031" x2="40.5447" y2="50.2846" gradientUnits="userSpaceOnUse">
<stop offset="0.180497" stop-color="#ABB3FF"/>
<stop offset="0.566076" stop-color="#4650AA"/>
<stop offset="0.807024" stop-color="#B741A8"/>
<stop offset="1" stop-color="#E85193"/>
</linearGradient>
<linearGradient id="paint2_linear_496_4628" x1="128.016" y1="30.6614" x2="39.3359" y2="30.6614" gradientUnits="userSpaceOnUse">
<stop stop-color="#3A80CE"/>
<stop offset="1" stop-color="#E25096"/>
</linearGradient>
<linearGradient id="paint3_linear_496_4628" x1="128.016" y1="30.6614" x2="39.3359" y2="30.6614" gradientUnits="userSpaceOnUse">
<stop stop-color="#3A80CE"/>
<stop offset="1" stop-color="#E25096"/>
</linearGradient>
<linearGradient id="paint4_linear_496_4628" x1="128.016" y1="30.6614" x2="39.3359" y2="30.6614" gradientUnits="userSpaceOnUse">
<stop stop-color="#3A80CE"/>
<stop offset="1" stop-color="#E25096"/>
</linearGradient>
<linearGradient id="paint5_linear_496_4628" x1="128.016" y1="30.6614" x2="39.3359" y2="30.6614" gradientUnits="userSpaceOnUse">
<stop stop-color="#3A80CE"/>
<stop offset="1" stop-color="#E25096"/>
</linearGradient>
<linearGradient id="paint6_linear_496_4628" x1="128.016" y1="30.6614" x2="39.3359" y2="30.6614" gradientUnits="userSpaceOnUse">
<stop stop-color="#3A80CE"/>
<stop offset="1" stop-color="#E25096"/>
</linearGradient>
<linearGradient id="paint7_linear_496_4628" x1="128.016" y1="30.6614" x2="39.3359" y2="30.6614" gradientUnits="userSpaceOnUse">
<stop stop-color="#3A80CE"/>
<stop offset="1" stop-color="#E25096"/>
</linearGradient>
<linearGradient id="paint8_linear_496_4628" x1="128.016" y1="30.6614" x2="39.3359" y2="30.6614" gradientUnits="userSpaceOnUse">
<stop stop-color="#3A80CE"/>
<stop offset="1" stop-color="#E25096"/>
</linearGradient>
</defs>
</svg>
